<?xml version="1.0" standalone="no"?>
<!DOCTYPE svg PUBLIC "-//W3C//DTD SVG 20010904//EN"
 "http://www.w3.org/TR/2001/REC-SVG-20010904/DTD/svg10.dtd">
<svg version="1.0" xmlns="http://www.w3.org/2000/svg"
 width="260.000000pt" height="260.000000pt" viewBox="0 0 260.000000 260.000000"
 preserveAspectRatio="xMidYMid meet">
<metadata>
Created by potrace 1.14, written by Peter Selinger 2001-2017
</metadata>
<g transform="translate(0.000000,260.000000) scale(0.100000,-0.100000)"
fill="#000000" stroke="none">
<path d="M78 2282 c-14 -3 -16 -119 -16 -1123 l0 -1120 507 2 c382 1 526 5
586 15 415 73 729 366 834 779 46 184 49 433 6 617 -106 459 -476 782 -945
824 -73 7 -941 12 -972 6z m922 -466 c119 -19 247 -81 323 -154 143 -138 210
-395 172 -657 -26 -183 -132 -351 -269 -428 -123 -68 -219 -84 -491 -81 -93 1
-172 2 -175 3 -4 1 -5 1325 -1 1326 18 4 409 -4 441 -9z"/>
<path d="M2185 541 c-211 -55 -277 -318 -118 -467 56 -54 99 -69 188 -68 63 0
89 5 123 22 204 107 209 379 10 487 -54 29 -146 41 -203 26z"/>
</g>
</svg>
