<svg width="75" height="32" viewBox="0 0 75 32" fill="none" xmlns="http://www.w3.org/2000/svg">
<rect x="2" y="1.80005" width="71" height="28" rx="14" fill="#F1FF29"/>
<path d="M19.1677 10.835V21.8H17.2477V10.835H19.1677ZM24.0277 12.605H17.3977V10.835H24.0277V12.605ZM23.2477 17.315H17.3677V15.59H23.2477V17.315ZM25.4885 21.8V14.39H27.3185V21.8H25.4885ZM26.3885 12.905C26.0785 12.905 25.8135 12.8 25.5935 12.59C25.3835 12.37 25.2785 12.105 25.2785 11.795C25.2785 11.485 25.3835 11.225 25.5935 11.015C25.8135 10.805 26.0785 10.7 26.3885 10.7C26.6985 10.7 26.9585 10.805 27.1685 11.015C27.3885 11.225 27.4985 11.485 27.4985 11.795C27.4985 12.105 27.3885 12.37 27.1685 12.59C26.9585 12.8 26.6985 12.905 26.3885 12.905ZM28.7892 17.93C28.7892 17.21 28.9342 16.57 29.2242 16.01C29.5242 15.44 29.9392 14.99 30.4692 14.66C30.9992 14.33 31.6142 14.165 32.3142 14.165C32.9442 14.165 33.4842 14.305 33.9342 14.585C34.3842 14.855 34.6992 15.235 34.8792 15.725L34.6842 15.89L34.8342 14.39H36.5292V21.425C36.5292 22.245 36.3692 22.955 36.0492 23.555C35.7392 24.165 35.2942 24.63 34.7142 24.95C34.1442 25.28 33.4542 25.445 32.6442 25.445C31.5842 25.445 30.7142 25.16 30.0342 24.59C29.3542 24.02 28.9542 23.24 28.8342 22.25H30.6642C30.7242 22.73 30.9242 23.105 31.2642 23.375C31.6142 23.645 32.0742 23.78 32.6442 23.78C33.2742 23.78 33.7742 23.595 34.1442 23.225C34.5242 22.865 34.7142 22.375 34.7142 21.755V19.91L34.9242 20.105C34.7442 20.575 34.4142 20.95 33.9342 21.23C33.4542 21.51 32.8992 21.65 32.2692 21.65C31.5692 21.65 30.9592 21.49 30.4392 21.17C29.9192 20.85 29.5142 20.41 29.2242 19.85C28.9342 19.29 28.7892 18.65 28.7892 17.93ZM30.6342 17.885C30.6342 18.305 30.7142 18.68 30.8742 19.01C31.0442 19.33 31.2792 19.585 31.5792 19.775C31.8792 19.965 32.2292 20.06 32.6292 20.06C33.0492 20.06 33.4092 19.97 33.7092 19.79C34.0192 19.6 34.2542 19.345 34.4142 19.025C34.5842 18.695 34.6692 18.315 34.6692 17.885C34.6692 17.455 34.5892 17.085 34.4292 16.775C34.2692 16.455 34.0342 16.205 33.7242 16.025C33.4242 15.845 33.0592 15.755 32.6292 15.755C32.2192 15.755 31.8642 15.85 31.5642 16.04C31.2642 16.22 31.0342 16.47 30.8742 16.79C30.7142 17.11 30.6342 17.475 30.6342 17.885ZM40.253 21.8H38.423V14.39H40.103L40.328 15.71L40.118 15.53C40.268 15.17 40.543 14.855 40.943 14.585C41.343 14.305 41.843 14.165 42.443 14.165C43.093 14.165 43.623 14.335 44.033 14.675C44.453 15.015 44.743 15.465 44.903 16.025H44.603C44.713 15.465 44.993 15.015 45.443 14.675C45.903 14.335 46.458 14.165 47.108 14.165C48.008 14.165 48.698 14.42 49.178 14.93C49.658 15.43 49.898 16.105 49.898 16.955V21.8H48.083V17.435C48.083 16.905 47.948 16.505 47.678 16.235C47.418 15.955 47.068 15.815 46.628 15.815C46.348 15.815 46.088 15.88 45.848 16.01C45.618 16.14 45.433 16.335 45.293 16.595C45.153 16.855 45.083 17.19 45.083 17.6V21.8H43.253V17.42C43.253 16.9 43.123 16.505 42.863 16.235C42.603 15.965 42.258 15.83 41.828 15.83C41.538 15.83 41.273 15.895 41.033 16.025C40.793 16.145 40.603 16.34 40.463 16.61C40.323 16.87 40.253 17.2 40.253 17.6V21.8ZM53.8995 21.995C53.1195 21.995 52.4995 21.785 52.0395 21.365C51.5895 20.935 51.3645 20.375 51.3645 19.685C51.3645 19.005 51.5995 18.465 52.0695 18.065C52.5495 17.655 53.2295 17.415 54.1095 17.345L56.3295 17.165V17C56.3295 16.66 56.2645 16.39 56.1345 16.19C56.0145 15.98 55.8395 15.83 55.6095 15.74C55.3795 15.64 55.1095 15.59 54.7995 15.59C54.2595 15.59 53.8445 15.7 53.5545 15.92C53.2645 16.13 53.1195 16.43 53.1195 16.82H51.5595C51.5595 16.28 51.6945 15.815 51.9645 15.425C52.2445 15.025 52.6345 14.715 53.1345 14.495C53.6445 14.275 54.2295 14.165 54.8895 14.165C55.5595 14.165 56.1345 14.285 56.6145 14.525C57.0945 14.755 57.4645 15.105 57.7245 15.575C57.9845 16.035 58.1145 16.61 58.1145 17.3V21.8H56.5095L56.3745 20.705C56.2145 21.085 55.9045 21.395 55.4445 21.635C54.9945 21.875 54.4795 21.995 53.8995 21.995ZM54.4845 20.615C55.0545 20.615 55.5045 20.455 55.8345 20.135C56.1745 19.815 56.3445 19.37 56.3445 18.8V18.41L54.7995 18.53C54.2295 18.58 53.8245 18.7 53.5845 18.89C53.3445 19.07 53.2245 19.31 53.2245 19.61C53.2245 19.94 53.3345 20.19 53.5545 20.36C53.7745 20.53 54.0845 20.615 54.4845 20.615Z" fill="black"/>
<rect x="2" y="1.80005" width="71" height="28" rx="14" stroke="#F1FF29" stroke-width="3"/>
</svg>
