<svg width="106" height="32" viewBox="0 0 106 32" fill="none" xmlns="http://www.w3.org/2000/svg">
<rect x="2" y="2.3999" width="102" height="28" rx="14" fill="#F1FF29"/>
<path d="M16.7302 19.3099V18.6649H18.5752V19.3099C18.5752 19.7299 18.7002 20.0849 18.9502 20.3749C19.2002 20.6649 19.5902 20.8099 20.1202 20.8099C20.6602 20.8099 21.0502 20.6699 21.2902 20.3899C21.5302 20.0999 21.6502 19.7199 21.6502 19.2499V11.4349H23.5702V19.3549C23.5702 19.9849 23.4252 20.5449 23.1352 21.0349C22.8552 21.5249 22.4602 21.9099 21.9502 22.1899C21.4402 22.4599 20.8352 22.5949 20.1352 22.5949C19.3952 22.5949 18.7702 22.4549 18.2602 22.1749C17.7502 21.8849 17.3652 21.4949 17.1052 21.0049C16.8552 20.5049 16.7302 19.9399 16.7302 19.3099ZM27.8419 22.5949C27.0619 22.5949 26.4419 22.3849 25.9819 21.9649C25.5319 21.5349 25.3069 20.9749 25.3069 20.2849C25.3069 19.6049 25.5419 19.0649 26.0119 18.6649C26.4919 18.2549 27.1719 18.0149 28.0519 17.9449L30.2719 17.7649V17.5999C30.2719 17.2599 30.2069 16.9899 30.0769 16.7899C29.9569 16.5799 29.7819 16.4299 29.5519 16.3399C29.3219 16.2399 29.0519 16.1899 28.7419 16.1899C28.2019 16.1899 27.7869 16.2999 27.4969 16.5199C27.2069 16.7299 27.0619 17.0299 27.0619 17.4199H25.5019C25.5019 16.8799 25.6369 16.4149 25.9069 16.0249C26.1869 15.6249 26.5769 15.3149 27.0769 15.0949C27.5869 14.8749 28.1719 14.7649 28.8319 14.7649C29.5019 14.7649 30.0769 14.8849 30.5569 15.1249C31.0369 15.3549 31.4069 15.7049 31.6669 16.1749C31.9269 16.6349 32.0569 17.2099 32.0569 17.8999V22.3999H30.4519L30.3169 21.3049C30.1569 21.6849 29.8469 21.9949 29.3869 22.2349C28.9369 22.4749 28.4219 22.5949 27.8419 22.5949ZM28.4269 21.2149C28.9969 21.2149 29.4469 21.0549 29.7769 20.7349C30.1169 20.4149 30.2869 19.9699 30.2869 19.3999V19.0099L28.7419 19.1299C28.1719 19.1799 27.7669 19.2999 27.5269 19.4899C27.2869 19.6699 27.1669 19.9099 27.1669 20.2099C27.1669 20.5399 27.2769 20.7899 27.4969 20.9599C27.7169 21.1299 28.0269 21.2149 28.4269 21.2149ZM35.6617 22.3999L32.7217 14.9899H34.6717L35.9617 18.3949C36.1217 18.8349 36.2567 19.2399 36.3667 19.6099C36.4867 19.9699 36.5717 20.2499 36.6217 20.4499C36.6717 20.2199 36.7567 19.9249 36.8767 19.5649C37.0067 19.1949 37.1517 18.8049 37.3117 18.3949L38.6617 14.9899H40.5517L37.4617 22.3999H35.6617ZM43.4571 22.5949C42.6771 22.5949 42.0571 22.3849 41.5971 21.9649C41.1471 21.5349 40.9221 20.9749 40.9221 20.2849C40.9221 19.6049 41.1571 19.0649 41.6271 18.6649C42.1071 18.2549 42.7871 18.0149 43.6671 17.9449L45.8871 17.7649V17.5999C45.8871 17.2599 45.8221 16.9899 45.6921 16.7899C45.5721 16.5799 45.3971 16.4299 45.1671 16.3399C44.9371 16.2399 44.6671 16.1899 44.3571 16.1899C43.8171 16.1899 43.4021 16.2999 43.1121 16.5199C42.8221 16.7299 42.6771 17.0299 42.6771 17.4199H41.1171C41.1171 16.8799 41.2521 16.4149 41.5221 16.0249C41.8021 15.6249 42.1921 15.3149 42.6921 15.0949C43.2021 14.8749 43.7871 14.7649 44.4471 14.7649C45.1171 14.7649 45.6921 14.8849 46.1721 15.1249C46.6521 15.3549 47.0221 15.7049 47.2821 16.1749C47.5421 16.6349 47.6721 17.2099 47.6721 17.8999V22.3999H46.0671L45.9321 21.3049C45.7721 21.6849 45.4621 21.9949 45.0021 22.2349C44.5521 22.4749 44.0371 22.5949 43.4571 22.5949ZM44.0421 21.2149C44.6121 21.2149 45.0621 21.0549 45.3921 20.7349C45.7321 20.4149 45.9021 19.9699 45.9021 19.3999V19.0099L44.3571 19.1299C43.7871 19.1799 43.3821 19.2999 43.1421 19.4899C42.9021 19.6699 42.7821 19.9099 42.7821 20.2099C42.7821 20.5399 42.8921 20.7899 43.1121 20.9599C43.3321 21.1299 43.6421 21.2149 44.0421 21.2149ZM49.1099 14.4949C49.1099 13.8549 49.2749 13.2899 49.6049 12.7999C49.9349 12.3099 50.3899 11.9299 50.9699 11.6599C51.5599 11.3799 52.2399 11.2399 53.0099 11.2399C53.7499 11.2399 54.3899 11.3699 54.9299 11.6299C55.4799 11.8899 55.9049 12.2599 56.2049 12.7399C56.5149 13.2199 56.6799 13.7899 56.6999 14.4499H54.7799C54.7599 13.9799 54.5899 13.6149 54.2699 13.3549C53.9499 13.0849 53.5199 12.9499 52.9799 12.9499C52.3899 12.9499 51.9149 13.0849 51.5549 13.3549C51.2049 13.6149 51.0299 13.9749 51.0299 14.4349C51.0299 14.8249 51.1349 15.1349 51.3449 15.3649C51.5649 15.5849 51.9049 15.7499 52.3649 15.8599L54.0899 16.2499C55.0299 16.4499 55.7299 16.7949 56.1899 17.2849C56.6499 17.7649 56.8799 18.4149 56.8799 19.2349C56.8799 19.9049 56.7149 20.4949 56.3849 21.0049C56.0549 21.5149 55.5849 21.9099 54.9749 22.1899C54.3749 22.4599 53.6699 22.5949 52.8599 22.5949C52.0899 22.5949 51.4149 22.4649 50.8349 22.2049C50.2549 21.9349 49.7999 21.5599 49.4699 21.0799C49.1499 20.5999 48.9799 20.0349 48.9599 19.3849H50.8799C50.8899 19.8449 51.0699 20.2099 51.4199 20.4799C51.7799 20.7399 52.2649 20.8699 52.8749 20.8699C53.5149 20.8699 54.0199 20.7399 54.3899 20.4799C54.7699 20.2099 54.9599 19.8549 54.9599 19.4149C54.9599 19.0349 54.8599 18.7349 54.6599 18.5149C54.4599 18.2849 54.1349 18.1249 53.6849 18.0349L51.9449 17.6449C51.0149 17.4449 50.3099 17.0849 49.8299 16.5649C49.3499 16.0349 49.1099 15.3449 49.1099 14.4949ZM57.9119 18.6799C57.9119 17.9199 58.0669 17.2449 58.3769 16.6549C58.6969 16.0649 59.1319 15.6049 59.6819 15.2749C60.2419 14.9349 60.8869 14.7649 61.6169 14.7649C62.6269 14.7649 63.4519 15.0299 64.0919 15.5599C64.7419 16.0799 65.1169 16.7849 65.2169 17.6749H63.3869C63.2769 17.2549 63.0719 16.9399 62.7719 16.7299C62.4819 16.5099 62.1169 16.3999 61.6769 16.3999C61.2969 16.3999 60.9569 16.4949 60.6569 16.6849C60.3669 16.8649 60.1419 17.1249 59.9819 17.4649C59.8219 17.8049 59.7419 18.2099 59.7419 18.6799C59.7419 19.1499 59.8169 19.5549 59.9669 19.8949C60.1169 20.2349 60.3319 20.4999 60.6119 20.6899C60.9019 20.8699 61.2419 20.9599 61.6319 20.9599C62.0919 20.9599 62.4719 20.8499 62.7719 20.6299C63.0819 20.4099 63.2869 20.0949 63.3869 19.6849H65.2319C65.1519 20.2649 64.9469 20.7749 64.6169 21.2149C64.2969 21.6449 63.8819 21.9849 63.3719 22.2349C62.8619 22.4749 62.2819 22.5949 61.6319 22.5949C60.8819 22.5949 60.2269 22.4349 59.6669 22.1149C59.1069 21.7849 58.6719 21.3299 58.3619 20.7499C58.0619 20.1599 57.9119 19.4699 57.9119 18.6799ZM71.2439 14.9599V16.6549H70.5689C69.8989 16.6549 69.3739 16.8349 68.9939 17.1949C68.6139 17.5449 68.4239 18.0799 68.4239 18.7999V22.3999H66.5939V15.0049H68.3189L68.4689 16.5349H68.2889C68.3889 16.0449 68.6239 15.6449 68.9939 15.3349C69.3639 15.0249 69.8439 14.8699 70.4339 14.8699C70.5639 14.8699 70.6939 14.8749 70.8239 14.8849C70.9539 14.8949 71.0939 14.9199 71.2439 14.9599ZM72.4826 22.3999V14.9899H74.3126V22.3999H72.4826ZM73.3826 13.5049C73.0726 13.5049 72.8076 13.3999 72.5876 13.1899C72.3776 12.9699 72.2726 12.7049 72.2726 12.3949C72.2726 12.0849 72.3776 11.8249 72.5876 11.6149C72.8076 11.4049 73.0726 11.2999 73.3826 11.2999C73.6926 11.2999 73.9526 11.4049 74.1626 11.6149C74.3826 11.8249 74.4926 12.0849 74.4926 12.3949C74.4926 12.7049 74.3826 12.9699 74.1626 13.1899C73.9526 13.3999 73.6926 13.5049 73.3826 13.5049ZM76.2033 25.8349V14.9899H77.8983L78.0183 16.1149C78.2383 15.6849 78.5783 15.3549 79.0383 15.1249C79.4983 14.8849 80.0033 14.7649 80.5533 14.7649C81.2633 14.7649 81.8733 14.9249 82.3833 15.2449C82.9033 15.5649 83.3083 16.0099 83.5983 16.5799C83.8883 17.1499 84.0333 17.8249 84.0333 18.6049C84.0333 19.3749 83.8983 20.0599 83.6283 20.6599C83.3583 21.2599 82.9633 21.7349 82.4433 22.0849C81.9333 22.4249 81.3083 22.5949 80.5683 22.5949C80.0183 22.5949 79.5133 22.4899 79.0533 22.2799C78.6033 22.0699 78.2633 21.7799 78.0333 21.4099V25.8349H76.2033ZM78.0483 18.6949C78.0483 19.1349 78.1333 19.5249 78.3033 19.8649C78.4733 20.2049 78.7133 20.4749 79.0233 20.6749C79.3433 20.8649 79.7133 20.9599 80.1333 20.9599C80.5633 20.9599 80.9333 20.8649 81.2433 20.6749C81.5533 20.4749 81.7883 20.2049 81.9483 19.8649C82.1083 19.5249 82.1883 19.1349 82.1883 18.6949C82.1883 18.2549 82.1083 17.8649 81.9483 17.5249C81.7883 17.1849 81.5533 16.9199 81.2433 16.7299C80.9333 16.5299 80.5633 16.4299 80.1333 16.4299C79.7133 16.4299 79.3433 16.5249 79.0233 16.7149C78.7133 16.9049 78.4733 17.1699 78.3033 17.5099C78.1333 17.8499 78.0483 18.2449 78.0483 18.6949ZM84.6822 14.9899H89.3622V16.5199H84.6822V14.9899ZM87.9372 22.3999H86.1072V12.6799H87.9372V22.3999Z" fill="black"/>
<rect x="2" y="2.3999" width="102" height="28" rx="14" stroke="#F1FF29" stroke-width="3"/>
</svg>
