<svg width="123" height="32" viewBox="0 0 123 32" fill="none" xmlns="http://www.w3.org/2000/svg">
<rect x="2" y="1.6001" width="119" height="28" rx="14" fill="#F1FF29"/>
<path d="M19.5911 21.6001H17.6711V10.6351H21.8561C23.0961 10.6351 24.0611 10.9351 24.7511 11.5351C25.4511 12.1351 25.8011 12.9751 25.8011 14.0551C25.8011 14.7851 25.6311 15.4101 25.2911 15.9301C24.9611 16.4401 24.4711 16.8301 23.8211 17.1001L25.9061 21.6001H23.8061L21.9461 17.5051H19.5911V21.6001ZM19.5911 12.3451V15.8101H21.8561C22.4661 15.8101 22.9411 15.6551 23.2811 15.3451C23.6211 15.0351 23.7911 14.6051 23.7911 14.0551C23.7911 13.5051 23.6211 13.0851 23.2811 12.7951C22.9411 12.4951 22.4661 12.3451 21.8561 12.3451H19.5911ZM30.2375 21.7951C29.5075 21.7951 28.8575 21.6301 28.2875 21.3001C27.7275 20.9601 27.2875 20.5001 26.9675 19.9201C26.6475 19.3301 26.4875 18.6551 26.4875 17.8951C26.4875 17.1251 26.6425 16.4451 26.9525 15.8551C27.2625 15.2651 27.6975 14.8051 28.2575 14.4751C28.8175 14.1351 29.4575 13.9651 30.1775 13.9651C30.9275 13.9651 31.5725 14.1251 32.1125 14.4451C32.6525 14.7551 33.0675 15.1901 33.3575 15.7501C33.6575 16.3101 33.8075 16.9801 33.8075 17.7601V18.3151L27.4475 18.3301L27.4775 17.1601H31.9925C31.9925 16.6501 31.8275 16.2401 31.4975 15.9301C31.1775 15.6201 30.7425 15.4651 30.1925 15.4651C29.7625 15.4651 29.3975 15.5551 29.0975 15.7351C28.8075 15.9151 28.5875 16.1851 28.4375 16.5451C28.2875 16.9051 28.2125 17.3451 28.2125 17.8651C28.2125 18.6651 28.3825 19.2701 28.7225 19.6801C29.0725 20.0901 29.5875 20.2951 30.2675 20.2951C30.7675 20.2951 31.1775 20.2001 31.4975 20.0101C31.8275 19.8201 32.0425 19.5501 32.1425 19.2001H33.8375C33.6775 20.0101 33.2775 20.6451 32.6375 21.1051C32.0075 21.5651 31.2075 21.7951 30.2375 21.7951ZM37.4039 21.7951C36.6239 21.7951 36.0039 21.5851 35.5439 21.1651C35.0939 20.7351 34.8689 20.1751 34.8689 19.4851C34.8689 18.8051 35.1039 18.2651 35.5739 17.8651C36.0539 17.4551 36.7339 17.2151 37.6139 17.1451L39.8339 16.9651V16.8001C39.8339 16.4601 39.7689 16.1901 39.6389 15.9901C39.5189 15.7801 39.3439 15.6301 39.1139 15.5401C38.8839 15.4401 38.6139 15.3901 38.3039 15.3901C37.7639 15.3901 37.3489 15.5001 37.0589 15.7201C36.7689 15.9301 36.6239 16.2301 36.6239 16.6201H35.0639C35.0639 16.0801 35.1989 15.6151 35.4689 15.2251C35.7489 14.8251 36.1389 14.5151 36.6389 14.2951C37.1489 14.0751 37.7339 13.9651 38.3939 13.9651C39.0639 13.9651 39.6389 14.0851 40.1189 14.3251C40.5989 14.5551 40.9689 14.9051 41.2289 15.3751C41.4889 15.8351 41.6189 16.4101 41.6189 17.1001V21.6001H40.0139L39.8789 20.5051C39.7189 20.8851 39.4089 21.1951 38.9489 21.4351C38.4989 21.6751 37.9839 21.7951 37.4039 21.7951ZM37.9889 20.4151C38.5589 20.4151 39.0089 20.2551 39.3389 19.9351C39.6789 19.6151 39.8489 19.1701 39.8489 18.6001V18.2101L38.3039 18.3301C37.7339 18.3801 37.3289 18.5001 37.0889 18.6901C36.8489 18.8701 36.7289 19.1101 36.7289 19.4101C36.7289 19.7401 36.8389 19.9901 37.0589 20.1601C37.2789 20.3301 37.5889 20.4151 37.9889 20.4151ZM42.9817 17.8801C42.9817 17.1201 43.1367 16.4451 43.4467 15.8551C43.7667 15.2651 44.2017 14.8051 44.7517 14.4751C45.3117 14.1351 45.9567 13.9651 46.6867 13.9651C47.6967 13.9651 48.5217 14.2301 49.1617 14.7601C49.8117 15.2801 50.1867 15.9851 50.2867 16.8751H48.4567C48.3467 16.4551 48.1417 16.1401 47.8417 15.9301C47.5517 15.7101 47.1867 15.6001 46.7467 15.6001C46.3667 15.6001 46.0267 15.6951 45.7267 15.8851C45.4367 16.0651 45.2117 16.3251 45.0517 16.6651C44.8917 17.0051 44.8117 17.4101 44.8117 17.8801C44.8117 18.3501 44.8867 18.7551 45.0367 19.0951C45.1867 19.4351 45.4017 19.7001 45.6817 19.8901C45.9717 20.0701 46.3117 20.1601 46.7017 20.1601C47.1617 20.1601 47.5417 20.0501 47.8417 19.8301C48.1517 19.6101 48.3567 19.2951 48.4567 18.8851H50.3017C50.2217 19.4651 50.0167 19.9751 49.6867 20.4151C49.3667 20.8451 48.9517 21.1851 48.4417 21.4351C47.9317 21.6751 47.3517 21.7951 46.7017 21.7951C45.9517 21.7951 45.2967 21.6351 44.7367 21.3151C44.1767 20.9851 43.7417 20.5301 43.4317 19.9501C43.1317 19.3601 42.9817 18.6701 42.9817 17.8801ZM50.9288 14.1901H55.6088V15.7201H50.9288V14.1901ZM54.1838 21.6001H52.3538V11.8801H54.1838V21.6001ZM56.4534 18.4051V16.7851H61.2834V18.4051H56.4534ZM65.3081 21.6001H63.4181V10.6351H65.3231L71.0231 19.2601H70.4681V10.6351H72.3581V21.6001H70.4681L64.7531 12.9901H65.3081V21.6001ZM76.7203 21.7951C75.9403 21.7951 75.3203 21.5851 74.8603 21.1651C74.4103 20.7351 74.1853 20.1751 74.1853 19.4851C74.1853 18.8051 74.4203 18.2651 74.8903 17.8651C75.3703 17.4551 76.0503 17.2151 76.9303 17.1451L79.1503 16.9651V16.8001C79.1503 16.4601 79.0853 16.1901 78.9553 15.9901C78.8353 15.7801 78.6603 15.6301 78.4303 15.5401C78.2003 15.4401 77.9303 15.3901 77.6203 15.3901C77.0803 15.3901 76.6653 15.5001 76.3753 15.7201C76.0853 15.9301 75.9403 16.2301 75.9403 16.6201H74.3803C74.3803 16.0801 74.5153 15.6151 74.7853 15.2251C75.0653 14.8251 75.4553 14.5151 75.9553 14.2951C76.4653 14.0751 77.0503 13.9651 77.7103 13.9651C78.3803 13.9651 78.9553 14.0851 79.4353 14.3251C79.9153 14.5551 80.2853 14.9051 80.5453 15.3751C80.8053 15.8351 80.9353 16.4101 80.9353 17.1001V21.6001H79.3303L79.1953 20.5051C79.0353 20.8851 78.7253 21.1951 78.2653 21.4351C77.8153 21.6751 77.3003 21.7951 76.7203 21.7951ZM77.3053 20.4151C77.8753 20.4151 78.3253 20.2551 78.6553 19.9351C78.9953 19.6151 79.1653 19.1701 79.1653 18.6001V18.2101L77.6203 18.3301C77.0503 18.3801 76.6453 18.5001 76.4053 18.6901C76.1653 18.8701 76.0453 19.1101 76.0453 19.4101C76.0453 19.7401 76.1553 19.9901 76.3753 20.1601C76.5953 20.3301 76.9053 20.4151 77.3053 20.4151ZM81.8955 14.1901H86.5755V15.7201H81.8955V14.1901ZM85.1505 21.6001H83.3205V11.8801H85.1505V21.6001ZM87.7282 21.6001V14.1901H89.5582V21.6001H87.7282ZM88.6282 12.7051C88.3182 12.7051 88.0532 12.6001 87.8332 12.3901C87.6232 12.1701 87.5182 11.9051 87.5182 11.5951C87.5182 11.2851 87.6232 11.0251 87.8332 10.8151C88.0532 10.6051 88.3182 10.5001 88.6282 10.5001C88.9382 10.5001 89.1982 10.6051 89.4082 10.8151C89.6282 11.0251 89.7382 11.2851 89.7382 11.5951C89.7382 11.9051 89.6282 12.1701 89.4082 12.3901C89.1982 12.6001 88.9382 12.7051 88.6282 12.7051ZM93.5489 21.6001L90.6089 14.1901H92.5589L93.8489 17.5951C94.0089 18.0351 94.1439 18.4401 94.2539 18.8101C94.3739 19.1701 94.4589 19.4501 94.5089 19.6501C94.5589 19.4201 94.6439 19.1251 94.7639 18.7651C94.8939 18.3951 95.0389 18.0051 95.1989 17.5951L96.5489 14.1901H98.4389L95.3489 21.6001H93.5489ZM102.454 21.7951C101.724 21.7951 101.074 21.6301 100.504 21.3001C99.9443 20.9601 99.5043 20.5001 99.1843 19.9201C98.8643 19.3301 98.7043 18.6551 98.7043 17.8951C98.7043 17.1251 98.8593 16.4451 99.1693 15.8551C99.4793 15.2651 99.9143 14.8051 100.474 14.4751C101.034 14.1351 101.674 13.9651 102.394 13.9651C103.144 13.9651 103.789 14.1251 104.329 14.4451C104.869 14.7551 105.284 15.1901 105.574 15.7501C105.874 16.3101 106.024 16.9801 106.024 17.7601V18.3151L99.6643 18.3301L99.6943 17.1601H104.209C104.209 16.6501 104.044 16.2401 103.714 15.9301C103.394 15.6201 102.959 15.4651 102.409 15.4651C101.979 15.4651 101.614 15.5551 101.314 15.7351C101.024 15.9151 100.804 16.1851 100.654 16.5451C100.504 16.9051 100.429 17.3451 100.429 17.8651C100.429 18.6651 100.599 19.2701 100.939 19.6801C101.289 20.0901 101.804 20.2951 102.484 20.2951C102.984 20.2951 103.394 20.2001 103.714 20.0101C104.044 19.8201 104.259 19.5501 104.359 19.2001H106.054C105.894 20.0101 105.494 20.6451 104.854 21.1051C104.224 21.5651 103.424 21.7951 102.454 21.7951Z" fill="black"/>
<rect x="2" y="1.6001" width="119" height="28" rx="14" stroke="#F1FF29" stroke-width="3"/>
</svg>
