<svg width="119" height="32" viewBox="0 0 119 32" fill="none" xmlns="http://www.w3.org/2000/svg">
<rect x="2" y="2" width="115" height="28" rx="14" fill="#F1FF29"/>
<path d="M21.7234 11.95V22H19.8034V11.95H21.7234ZM16.5934 12.805V11.035H24.9334V12.805H16.5934ZM27.0763 22.195C26.2963 22.195 25.6763 21.985 25.2163 21.565C24.7663 21.135 24.5413 20.575 24.5413 19.885C24.5413 19.205 24.7763 18.665 25.2463 18.265C25.7263 17.855 26.4063 17.615 27.2863 17.545L29.5063 17.365V17.2C29.5063 16.86 29.4413 16.59 29.3113 16.39C29.1913 16.18 29.0163 16.03 28.7863 15.94C28.5563 15.84 28.2863 15.79 27.9763 15.79C27.4363 15.79 27.0213 15.9 26.7313 16.12C26.4413 16.33 26.2963 16.63 26.2963 17.02H24.7363C24.7363 16.48 24.8713 16.015 25.1413 15.625C25.4213 15.225 25.8113 14.915 26.3113 14.695C26.8213 14.475 27.4063 14.365 28.0663 14.365C28.7363 14.365 29.3113 14.485 29.7913 14.725C30.2713 14.955 30.6413 15.305 30.9013 15.775C31.1613 16.235 31.2913 16.81 31.2913 17.5V22H29.6863L29.5513 20.905C29.3913 21.285 29.0813 21.595 28.6213 21.835C28.1713 22.075 27.6563 22.195 27.0763 22.195ZM27.6613 20.815C28.2313 20.815 28.6813 20.655 29.0113 20.335C29.3513 20.015 29.5213 19.57 29.5213 19V18.61L27.9763 18.73C27.4063 18.78 27.0013 18.9 26.7613 19.09C26.5213 19.27 26.4013 19.51 26.4013 19.81C26.4013 20.14 26.5113 20.39 26.7313 20.56C26.9513 20.73 27.2613 20.815 27.6613 20.815ZM33.089 22V14.59H34.919V22H33.089ZM33.989 13.105C33.679 13.105 33.414 13 33.194 12.79C32.984 12.57 32.879 12.305 32.879 11.995C32.879 11.685 32.984 11.425 33.194 11.215C33.414 11.005 33.679 10.9 33.989 10.9C34.299 10.9 34.559 11.005 34.769 11.215C34.989 11.425 35.099 11.685 35.099 11.995C35.099 12.305 34.989 12.57 34.769 12.79C34.559 13 34.299 13.105 33.989 13.105ZM38.6547 22H36.8397V10.84H38.6547V22ZM42.2094 22L39.8094 14.59H41.7144L42.6894 17.77C42.7694 18.06 42.8494 18.365 42.9294 18.685C43.0094 19.005 43.0794 19.34 43.1394 19.69C43.1894 19.45 43.2344 19.23 43.2744 19.03C43.3244 18.83 43.3794 18.635 43.4394 18.445C43.4994 18.245 43.5694 18.02 43.6494 17.77L44.6694 14.59H46.5294L47.5194 17.77C47.5394 17.84 47.5694 17.96 47.6094 18.13C47.6594 18.29 47.7094 18.465 47.7594 18.655C47.8094 18.845 47.8544 19.035 47.8944 19.225C47.9444 19.405 47.9794 19.56 47.9994 19.69C48.0394 19.5 48.0894 19.285 48.1494 19.045C48.2094 18.805 48.2694 18.575 48.3294 18.355C48.3994 18.125 48.4544 17.93 48.4944 17.77L49.4844 14.59H51.4194L48.8544 22H47.1444L46.1244 18.79C45.9744 18.3 45.8544 17.885 45.7644 17.545C45.6744 17.195 45.6144 16.925 45.5844 16.735C45.5544 16.915 45.4994 17.155 45.4194 17.455C45.3394 17.755 45.2044 18.21 45.0144 18.82L43.9944 22H42.2094ZM52.5275 22V14.59H54.3575V22H52.5275ZM53.4275 13.105C53.1175 13.105 52.8525 13 52.6325 12.79C52.4225 12.57 52.3175 12.305 52.3175 11.995C52.3175 11.685 52.4225 11.425 52.6325 11.215C52.8525 11.005 53.1175 10.9 53.4275 10.9C53.7375 10.9 53.9975 11.005 54.2075 11.215C54.4275 11.425 54.5375 11.685 54.5375 11.995C54.5375 12.305 54.4275 12.57 54.2075 12.79C53.9975 13 53.7375 13.105 53.4275 13.105ZM58.0782 22H56.2482V14.59H57.9432L58.0932 15.55C58.3232 15.18 58.6482 14.89 59.0682 14.68C59.4982 14.47 59.9632 14.365 60.4632 14.365C61.3932 14.365 62.0932 14.64 62.5632 15.19C63.0432 15.74 63.2832 16.49 63.2832 17.44V22H61.4532V17.875C61.4532 17.255 61.3132 16.795 61.0332 16.495C60.7532 16.185 60.3732 16.03 59.8932 16.03C59.3232 16.03 58.8782 16.21 58.5582 16.57C58.2382 16.93 58.0782 17.41 58.0782 18.01V22ZM68.1262 22.195C67.4062 22.195 66.7862 22.035 66.2662 21.715C65.7562 21.385 65.3562 20.93 65.0662 20.35C64.7862 19.77 64.6462 19.095 64.6462 18.325C64.6462 17.555 64.7862 16.875 65.0662 16.285C65.3562 15.685 65.7712 15.215 66.3112 14.875C66.8512 14.535 67.4912 14.365 68.2312 14.365C68.7512 14.365 69.2262 14.47 69.6562 14.68C70.0862 14.88 70.4162 15.165 70.6462 15.535V10.84H72.4612V22H70.7812L70.6612 20.845C70.4412 21.265 70.1012 21.595 69.6412 21.835C69.1912 22.075 68.6862 22.195 68.1262 22.195ZM68.5312 20.515C68.9612 20.515 69.3312 20.425 69.6412 20.245C69.9512 20.055 70.1912 19.79 70.3612 19.45C70.5412 19.1 70.6312 18.705 70.6312 18.265C70.6312 17.815 70.5412 17.425 70.3612 17.095C70.1912 16.755 69.9512 16.49 69.6412 16.3C69.3312 16.1 68.9612 16 68.5312 16C68.1112 16 67.7462 16.1 67.4362 16.3C67.1262 16.49 66.8862 16.755 66.7162 17.095C66.5562 17.435 66.4762 17.825 66.4762 18.265C66.4762 18.705 66.5562 19.095 66.7162 19.435C66.8862 19.775 67.1262 20.04 67.4362 20.23C67.7462 20.42 68.1112 20.515 68.5312 20.515ZM79.2733 22.18C78.2033 22.18 77.2733 21.95 76.4833 21.49C75.7033 21.02 75.0933 20.365 74.6533 19.525C74.2233 18.675 74.0083 17.675 74.0083 16.525C74.0083 15.385 74.2283 14.39 74.6683 13.54C75.1183 12.69 75.7483 12.03 76.5583 11.56C77.3683 11.09 78.3033 10.855 79.3633 10.855C80.2333 10.855 81.0133 11.015 81.7033 11.335C82.3933 11.655 82.9633 12.105 83.4133 12.685C83.8633 13.255 84.1483 13.935 84.2683 14.725H82.2433C82.0533 14.085 81.6983 13.59 81.1783 13.24C80.6683 12.88 80.0433 12.7 79.3033 12.7C78.6433 12.7 78.0633 12.855 77.5633 13.165C77.0733 13.475 76.6933 13.915 76.4233 14.485C76.1533 15.055 76.0183 15.735 76.0183 16.525C76.0183 17.285 76.1533 17.955 76.4233 18.535C76.6933 19.105 77.0733 19.55 77.5633 19.87C78.0633 20.18 78.6433 20.335 79.3033 20.335C80.0533 20.335 80.6933 20.155 81.2233 19.795C81.7633 19.435 82.1233 18.95 82.3033 18.34H84.2983C84.1583 19.1 83.8533 19.77 83.3833 20.35C82.9233 20.93 82.3383 21.38 81.6283 21.7C80.9283 22.02 80.1433 22.18 79.2733 22.18ZM85.3902 14.095C85.3902 13.455 85.5552 12.89 85.8852 12.4C86.2152 11.91 86.6702 11.53 87.2502 11.26C87.8402 10.98 88.5202 10.84 89.2902 10.84C90.0302 10.84 90.6702 10.97 91.2102 11.23C91.7602 11.49 92.1852 11.86 92.4852 12.34C92.7952 12.82 92.9602 13.39 92.9802 14.05H91.0602C91.0402 13.58 90.8702 13.215 90.5502 12.955C90.2302 12.685 89.8002 12.55 89.2602 12.55C88.6702 12.55 88.1952 12.685 87.8352 12.955C87.4852 13.215 87.3102 13.575 87.3102 14.035C87.3102 14.425 87.4152 14.735 87.6252 14.965C87.8452 15.185 88.1852 15.35 88.6452 15.46L90.3702 15.85C91.3102 16.05 92.0102 16.395 92.4702 16.885C92.9302 17.365 93.1602 18.015 93.1602 18.835C93.1602 19.505 92.9952 20.095 92.6652 20.605C92.3352 21.115 91.8652 21.51 91.2552 21.79C90.6552 22.06 89.9502 22.195 89.1402 22.195C88.3702 22.195 87.6952 22.065 87.1152 21.805C86.5352 21.535 86.0802 21.16 85.7502 20.68C85.4302 20.2 85.2602 19.635 85.2402 18.985H87.1602C87.1702 19.445 87.3502 19.81 87.7002 20.08C88.0602 20.34 88.5452 20.47 89.1552 20.47C89.7952 20.47 90.3002 20.34 90.6702 20.08C91.0502 19.81 91.2402 19.455 91.2402 19.015C91.2402 18.635 91.1402 18.335 90.9402 18.115C90.7402 17.885 90.4152 17.725 89.9652 17.635L88.2252 17.245C87.2952 17.045 86.5902 16.685 86.1102 16.165C85.6302 15.635 85.3902 14.945 85.3902 14.095ZM94.3697 14.095C94.3697 13.455 94.5347 12.89 94.8647 12.4C95.1947 11.91 95.6497 11.53 96.2297 11.26C96.8197 10.98 97.4997 10.84 98.2697 10.84C99.0097 10.84 99.6497 10.97 100.19 11.23C100.74 11.49 101.165 11.86 101.465 12.34C101.775 12.82 101.94 13.39 101.96 14.05H100.04C100.02 13.58 99.8497 13.215 99.5297 12.955C99.2097 12.685 98.7797 12.55 98.2397 12.55C97.6497 12.55 97.1747 12.685 96.8147 12.955C96.4647 13.215 96.2897 13.575 96.2897 14.035C96.2897 14.425 96.3947 14.735 96.6047 14.965C96.8247 15.185 97.1647 15.35 97.6247 15.46L99.3497 15.85C100.29 16.05 100.99 16.395 101.45 16.885C101.91 17.365 102.14 18.015 102.14 18.835C102.14 19.505 101.975 20.095 101.645 20.605C101.315 21.115 100.845 21.51 100.235 21.79C99.6347 22.06 98.9297 22.195 98.1197 22.195C97.3497 22.195 96.6747 22.065 96.0947 21.805C95.5147 21.535 95.0597 21.16 94.7297 20.68C94.4097 20.2 94.2397 19.635 94.2197 18.985H96.1397C96.1497 19.445 96.3297 19.81 96.6797 20.08C97.0397 20.34 97.5247 20.47 98.1347 20.47C98.7747 20.47 99.2797 20.34 99.6497 20.08C100.03 19.81 100.22 19.455 100.22 19.015C100.22 18.635 100.12 18.335 99.9197 18.115C99.7197 17.885 99.3947 17.725 98.9447 17.635L97.2047 17.245C96.2747 17.045 95.5697 16.685 95.0897 16.165C94.6097 15.635 94.3697 14.945 94.3697 14.095Z" fill="black"/>
<rect x="2" y="2" width="115" height="28" rx="14" stroke="#F1FF29" stroke-width="3"/>
</svg>
