<svg width="75" height="32" viewBox="0 0 75 32" fill="none" xmlns="http://www.w3.org/2000/svg">
<rect x="2" y="2" width="71" height="28" rx="14" fill="#F1FF29"/>
<path d="M17.3338 17.995V11.035H19.2538V17.875C19.2538 18.665 19.4638 19.27 19.8838 19.69C20.3038 20.11 20.8988 20.32 21.6688 20.32C22.4488 20.32 23.0488 20.11 23.4688 19.69C23.8888 19.26 24.0988 18.655 24.0988 17.875V11.035H26.0188V17.995C26.0188 18.845 25.8388 19.585 25.4788 20.215C25.1288 20.835 24.6288 21.32 23.9788 21.67C23.3288 22.01 22.5588 22.18 21.6688 22.18C20.7888 22.18 20.0238 22.01 19.3738 21.67C18.7238 21.33 18.2188 20.845 17.8588 20.215C17.5088 19.585 17.3338 18.845 17.3338 17.995ZM30.3005 11.035V22H28.3805V11.035H30.3005ZM33.3311 22H31.5161L35.7911 11.05H37.6211L33.3311 22ZM38.7645 17.995V11.035H40.6845V17.875C40.6845 18.665 40.8945 19.27 41.3145 19.69C41.7345 20.11 42.3295 20.32 43.0995 20.32C43.8795 20.32 44.4795 20.11 44.8995 19.69C45.3195 19.26 45.5295 18.655 45.5295 17.875V11.035H47.4495V17.995C47.4495 18.845 47.2695 19.585 46.9095 20.215C46.5595 20.835 46.0595 21.32 45.4095 21.67C44.7595 22.01 43.9895 22.18 43.0995 22.18C42.2195 22.18 41.4545 22.01 40.8045 21.67C40.1545 21.33 39.6495 20.845 39.2895 20.215C38.9395 19.585 38.7645 18.845 38.7645 17.995ZM52.5712 16.525L48.9262 11.035H51.2062L52.5412 13.015C52.7612 13.335 52.9662 13.665 53.1562 14.005C53.3562 14.335 53.5612 14.685 53.7712 15.055L56.3212 11.035H58.5562L54.9712 16.51L58.5712 22H56.3062L55.0762 20.185C54.8262 19.815 54.6012 19.455 54.4012 19.105C54.2012 18.755 53.9862 18.385 53.7562 17.995L51.1012 22H48.8512L52.5712 16.525Z" fill="black"/>
<rect x="2" y="2" width="71" height="28" rx="14" stroke="#F1FF29" stroke-width="3"/>
</svg>
