<svg width="76" height="32" viewBox="0 0 76 32" fill="none" xmlns="http://www.w3.org/2000/svg">
<rect x="2" y="2.19995" width="72" height="28" rx="14" fill="#F1FF29"/>
<path d="M20.3979 22.2L16.2579 11.235H18.2979L20.6979 17.55C20.8179 17.87 20.9329 18.205 21.0429 18.555C21.1529 18.905 21.2679 19.3 21.3879 19.74C21.5179 19.26 21.6429 18.845 21.7629 18.495C21.8829 18.145 21.9929 17.83 22.0929 17.55L24.4629 11.235H26.4579L22.3779 22.2H20.3979ZM31.7752 14.79H33.6052V22.2H31.9102L31.7752 21.21C31.5552 21.56 31.2252 21.845 30.7852 22.065C30.3452 22.285 29.8752 22.395 29.3752 22.395C28.5252 22.395 27.8602 22.125 27.3802 21.585C26.9002 21.045 26.6602 20.325 26.6602 19.425V14.79H28.4902V18.78C28.4902 19.48 28.6252 19.985 28.8952 20.295C29.1652 20.605 29.5552 20.76 30.0652 20.76C30.6452 20.76 31.0752 20.59 31.3552 20.25C31.6352 19.9 31.7752 19.375 31.7752 18.675V14.79ZM38.6638 22.395C37.9338 22.395 37.2838 22.23 36.7138 21.9C36.1538 21.56 35.7138 21.1 35.3938 20.52C35.0738 19.93 34.9138 19.255 34.9138 18.495C34.9138 17.725 35.0688 17.045 35.3788 16.455C35.6888 15.865 36.1238 15.405 36.6838 15.075C37.2438 14.735 37.8838 14.565 38.6038 14.565C39.3538 14.565 39.9988 14.725 40.5388 15.045C41.0788 15.355 41.4938 15.79 41.7838 16.35C42.0838 16.91 42.2338 17.58 42.2338 18.36V18.915L35.8738 18.93L35.9038 17.76H40.4188C40.4188 17.25 40.2538 16.84 39.9238 16.53C39.6038 16.22 39.1688 16.065 38.6188 16.065C38.1888 16.065 37.8238 16.155 37.5238 16.335C37.2338 16.515 37.0138 16.785 36.8638 17.145C36.7138 17.505 36.6388 17.945 36.6388 18.465C36.6388 19.265 36.8088 19.87 37.1488 20.28C37.4988 20.69 38.0138 20.895 38.6938 20.895C39.1938 20.895 39.6038 20.8 39.9238 20.61C40.2538 20.42 40.4688 20.15 40.5688 19.8H42.2638C42.1038 20.61 41.7038 21.245 41.0638 21.705C40.4338 22.165 39.6338 22.395 38.6638 22.395ZM43.0534 19.11V18.465H44.8984V19.11C44.8984 19.53 45.0234 19.885 45.2734 20.175C45.5234 20.465 45.9134 20.61 46.4434 20.61C46.9834 20.61 47.3734 20.47 47.6134 20.19C47.8534 19.9 47.9734 19.52 47.9734 19.05V11.235H49.8934V19.155C49.8934 19.785 49.7484 20.345 49.4584 20.835C49.1784 21.325 48.7834 21.71 48.2734 21.99C47.7634 22.26 47.1584 22.395 46.4584 22.395C45.7184 22.395 45.0934 22.255 44.5834 21.975C44.0734 21.685 43.6884 21.295 43.4284 20.805C43.1784 20.305 43.0534 19.74 43.0534 19.11ZM51.6001 14.295C51.6001 13.655 51.7651 13.09 52.0951 12.6C52.4251 12.11 52.8801 11.73 53.4601 11.46C54.0501 11.18 54.7301 11.04 55.5001 11.04C56.2401 11.04 56.8801 11.17 57.4201 11.43C57.9701 11.69 58.3951 12.06 58.6951 12.54C59.0051 13.02 59.1701 13.59 59.1901 14.25H57.2701C57.2501 13.78 57.0801 13.415 56.7601 13.155C56.4401 12.885 56.0101 12.75 55.4701 12.75C54.8801 12.75 54.4051 12.885 54.0451 13.155C53.6951 13.415 53.5201 13.775 53.5201 14.235C53.5201 14.625 53.6251 14.935 53.8351 15.165C54.0551 15.385 54.3951 15.55 54.8551 15.66L56.5801 16.05C57.5201 16.25 58.2201 16.595 58.6801 17.085C59.1401 17.565 59.3701 18.215 59.3701 19.035C59.3701 19.705 59.2051 20.295 58.8751 20.805C58.5451 21.315 58.0751 21.71 57.4651 21.99C56.8651 22.26 56.1601 22.395 55.3501 22.395C54.5801 22.395 53.9051 22.265 53.3251 22.005C52.7451 21.735 52.2901 21.36 51.9601 20.88C51.6401 20.4 51.4701 19.835 51.4501 19.185H53.3701C53.3801 19.645 53.5601 20.01 53.9101 20.28C54.2701 20.54 54.7551 20.67 55.3651 20.67C56.0051 20.67 56.5101 20.54 56.8801 20.28C57.2601 20.01 57.4501 19.655 57.4501 19.215C57.4501 18.835 57.3501 18.535 57.1501 18.315C56.9501 18.085 56.6251 17.925 56.1751 17.835L54.4351 17.445C53.5051 17.245 52.8001 16.885 52.3201 16.365C51.8401 15.835 51.6001 15.145 51.6001 14.295Z" fill="black"/>
<rect x="2" y="2.19995" width="72" height="28" rx="14" stroke="#F1FF29" stroke-width="3"/>
</svg>
