<svg width="26" height="26" viewBox="0 0 26 26" fill="none" xmlns="http://www.w3.org/2000/svg">
<path fill-rule="evenodd" clip-rule="evenodd" d="M0 13C0 5.8203 5.8203 0 13 0C20.1797 0 26 5.8203 26 13C26 20.1797 20.1797 26 13 26C5.8203 26 0 20.1797 0 13ZM14.9274 10.1129H18.5995V9.06079H14.9274V10.1129ZM18.2759 10.996C17.834 10.8006 17.3374 10.7024 16.7855 10.7024C15.8568 10.7024 15.1027 10.9928 14.5197 11.5695C13.9384 12.1478 13.6474 12.9787 13.6474 14.0621C13.6474 15.2171 13.9686 16.052 14.6151 16.5644C15.2584 17.0776 16.0028 17.3333 16.8466 17.3333C17.8682 17.3333 18.6631 17.0293 19.2306 16.422C19.5942 16.0392 19.7997 15.6619 19.8445 15.2919H18.1527C18.0549 15.4753 17.9408 15.6185 17.8111 15.7223C17.5755 15.9129 17.2681 16.0086 16.8923 16.0086C16.5352 16.0086 16.2311 15.9298 15.9783 15.7729C15.5609 15.5212 15.3424 15.0812 15.3147 14.4546H19.9317C19.9391 13.9149 19.9211 13.4999 19.8763 13.2135C19.7997 12.7237 19.6317 12.2926 19.37 11.921C19.083 11.4995 18.7186 11.1907 18.2759 10.996ZM12.4285 9.56752C11.9923 8.98197 11.2528 8.68195 10.2076 8.66667H6.06667V17.1202H9.92795C10.3633 17.1202 10.7661 17.0832 11.1387 17.0068C11.5113 16.9296 11.8333 16.7888 12.1064 16.5821C12.3494 16.4019 12.5516 16.1799 12.713 15.9169C12.9682 15.5196 13.0954 15.0699 13.0954 14.5688C13.0954 14.083 12.9837 13.6696 12.762 13.3302C12.5377 12.9899 12.2084 12.7414 11.7714 12.5838C12.0592 12.439 12.2768 12.2781 12.4252 12.1028C12.6902 11.7891 12.8215 11.3732 12.8215 10.8577C12.8215 10.3566 12.6902 9.92705 12.4285 9.56752Z" fill="#CCCCCC"/>
<path fill-rule="evenodd" clip-rule="evenodd" d="M7.77478 10.1346H9.6402C10.0503 10.1346 10.3878 10.1788 10.6536 10.2665C10.9602 10.3936 11.1135 10.6534 11.1135 11.0483C11.1135 11.4022 10.9969 11.6499 10.7653 11.7899C10.5321 11.9298 10.2297 11.9998 9.8587 11.9998H7.77478V10.1346ZM15.7974 12.4084C16.0314 12.1703 16.3624 12.0513 16.7863 12.0513C17.1777 12.0513 17.5046 12.1631 17.7704 12.3875C18.0329 12.6135 18.1813 12.9417 18.2115 13.376H15.3555C15.4158 12.969 15.5634 12.6465 15.7974 12.4084ZM7.77478 13.3985H9.88479C10.2517 13.4018 10.5378 13.45 10.7417 13.5417C11.1061 13.7066 11.2871 14.0082 11.2871 14.449C11.2871 14.9686 11.0996 15.3193 10.7237 15.5043C10.5175 15.6032 10.2272 15.6531 9.85544 15.6531H7.77478V13.3985Z" fill="#CCCCCC"/>
</svg>
