<svg width="26" height="26" viewBox="0 0 26 26" fill="none" xmlns="http://www.w3.org/2000/svg">
<path fill-rule="evenodd" clip-rule="evenodd" d="M0 13C0 5.82032 5.82032 0 13 0C20.1797 0 26 5.82032 26 13C26 20.1797 20.1797 26 13 26C5.82032 26 0 20.1797 0 13ZM10.4 20.8C11.8359 20.8 13 19.6359 13 18.2V15.6H10.4C8.96406 15.6 7.8 16.7641 7.8 18.2C7.8 19.6359 8.96406 20.8 10.4 20.8ZM7.8 13C7.8 14.4359 8.96406 15.6 10.4 15.6H13V10.4H10.4C8.96406 10.4 7.8 11.5641 7.8 13ZM7.8 7.8C7.8 9.23594 8.96406 10.4 10.4 10.4H13V5.2H10.4C8.96406 5.2 7.8 6.36406 7.8 7.8ZM13 5.2V10.4H15.6C17.0359 10.4 18.2 9.23594 18.2 7.8C18.2 6.36406 17.0359 5.2 15.6 5.2H13ZM18.2 13C18.2 11.5641 17.0359 10.4 15.6 10.4C14.1641 10.4 13 11.5641 13 13C13 14.4359 14.1641 15.6 15.6 15.6C17.0359 15.6 18.2 14.4359 18.2 13Z"/>
</svg>
