<svg width="26" height="26" viewBox="0 0 26 26" fill="none" xmlns="http://www.w3.org/2000/svg">
<path fill-rule="evenodd" clip-rule="evenodd" d="M0 13C0 5.8203 5.8203 0 13 0C20.1797 0 26 5.8203 26 13C26 20.1797 20.1797 26 13 26C5.8203 26 0 20.1797 0 13ZM9.18696 10.7672H6.24087V19.6189H9.18696V10.7672ZM9.38101 8.02896C9.36188 7.16105 8.74124 6.5 7.7334 6.5C6.72556 6.5 6.06668 7.16105 6.06668 8.02896C6.06668 8.87889 6.70609 9.55898 7.69516 9.55898H7.71399C8.74124 9.55898 9.38101 8.87889 9.38101 8.02896ZM19.8117 14.5436C19.8117 11.8247 18.3583 10.5593 16.4196 10.5593C14.8554 10.5593 14.1551 11.4185 13.7641 12.0212V10.7674H10.8177C10.8565 11.598 10.8177 19.6192 10.8177 19.6192H13.7641V14.6756C13.7641 14.4111 13.7832 14.1472 13.8611 13.9577C14.0741 13.4292 14.5589 12.882 15.3728 12.882C16.4393 12.882 16.8656 13.6937 16.8656 14.8832V19.6189H19.8116L19.8117 14.5436Z" fill="#CCCCCC"/>
</svg>
